<?xml version="1.0" encoding="UTF-8"?>
<svg xmlns="http://www.w3.org/2000/svg" viewBox="0 0 1920 1080">
  <g id="bazaar">
    <g>
      <g>
        <path d="m1522.7,679.7h-4.11c-8.18,0-13.61-2.86-16.31-8.58-1.64-3.51-2.64-10.12-3-19.8l-1.41-38.93c-.08-2.21.37-4.07,1.35-5.58,1.1-1.76,2.72-2.64,4.84-2.64,4.17,0,6.25,2.74,6.25,8.21v41.2c0,7.89,3.21,11.83,9.63,11.83h2.76v14.29Z"/>
        <path d="m1545.75,657.51c0,6.87-1.92,12.28-5.76,16.25-3.84,3.97-9.18,5.95-16,5.95h-4.84v-14.29h5.64c6.09,0,9.14-2.12,9.14-6.38,0-1.23-.3-3-.89-5.33-.59-2.33-.89-4.11-.89-5.33,0-1.68.54-3.12,1.62-4.32,1.08-1.21,2.46-1.81,4.14-1.81,5.23,0,7.85,5.09,7.85,15.27Zm-5.89,34.58c0,1.96-.69,3.64-2.05,5.03s-3.03,2.08-5,2.08-3.62-.7-4.97-2.08c-1.35-1.39-2.02-3.07-2.02-5.03s.68-3.57,2.05-4.94c1.37-1.37,3.01-2.05,4.94-2.05s3.63.67,5,2.02,2.05,3,2.05,4.97Z"/>
      </g>
      <path d="m1426.91,662.07c.12,1.59.18,3.13.18,4.6,0,11.12-3.25,20.56-9.75,28.33-6.17,7.44-14.74,12.71-25.69,15.82-.86.25-1.8.37-2.82.37-4.05,0-6.07-1.84-6.07-5.52,0-3.07,1.86-5.44,5.58-7.11,9.48-4.29,15.96-8.3,19.44-12.02,4.05-4.33,6.07-10.14,6.07-17.41,0-.82-.06-2.04-.18-3.68-.12-1.63-.18-2.86-.18-3.68,0-6.7,2.02-10.05,6.07-10.05,4.37,0,6.83,3.46,7.36,10.36Z"/>
      <path d="m1453.29,677.43c0,4.46-1.76,6.68-5.27,6.68-3.31,0-5.05-2.08-5.21-6.25l-2.39-60.94c-.08-2.53.37-4.76,1.35-6.68,1.23-2.37,3-3.56,5.33-3.56,4.13,0,6.19,3.11,6.19,9.32v61.43Z"/>
      <path d="m1487.25,662.07c.12,1.59.18,3.13.18,4.6,0,11.12-3.25,20.56-9.75,28.33-6.17,7.44-14.74,12.71-25.69,15.82-.86.25-1.8.37-2.82.37-4.05,0-6.07-1.84-6.07-5.52,0-3.07,1.86-5.44,5.58-7.11,9.48-4.29,15.96-8.3,19.44-12.02,4.05-4.33,6.07-10.14,6.07-17.41,0-.82-.06-2.04-.18-3.68-.12-1.63-.18-2.86-.18-3.68,0-6.7,2.02-10.05,6.07-10.05,4.37,0,6.83,3.46,7.36,10.36Zm-3.8-27.77c0,1.96-.68,3.64-2.05,5.03-1.37,1.39-3.03,2.08-5,2.08s-3.62-.69-4.97-2.08c-1.35-1.39-2.02-3.07-2.02-5.03s.68-3.57,2.05-4.94c1.37-1.37,3.01-2.05,4.94-2.05s3.63.67,5,2.02c1.37,1.35,2.05,3,2.05,4.97Z"/>
    </g>
  </g>
  <g id="Locate">
    <g>
      <path d="m364.81,290.08c2.71,0,5.32-.42,7.83-1.28,2.51-.85,4.82-2.05,6.91-3.6,2.09-1.55,3.85-3.37,5.28-5.46,1.43-2.09,2.42-4.37,2.96-6.85h2.32v17.18h13.23v2.9h-13.23v39.81c0,5.88,2.01,8.82,6.04,8.82,1.7,0,3.17-.54,4.41-1.62,1.24-1.08,1.97-2.17,2.21-3.25h1.16c0,2.09-.43,4.04-1.28,5.86-.85,1.82-2.05,3.39-3.6,4.7-1.55,1.32-3.39,2.34-5.51,3.08-2.13.74-4.43,1.1-6.91,1.1-5.34,0-9.38-1.58-12.13-4.76-2.75-3.17-4.12-7.81-4.12-13.93v-39.81h-7.31v-2.9h1.74Z"/>
      <path d="m449.42,307.95c0-6.96-3.33-10.45-9.98-10.45-2.01,0-4,.58-5.98,1.74-1.97,1.16-3.62,2.75-4.93,4.76v33.54c0,1.39.15,2.79.46,4.18.31,1.39.71,2.65,1.22,3.77.5,1.12,1.08,2.01,1.74,2.67.66.66,1.33.99,2.03.99v1.16h-30.64v-1.16c.7,0,1.37-.33,2.03-.99s1.24-1.51,1.74-2.55c.5-1.04.91-2.24,1.22-3.6.31-1.35.46-2.69.46-4v-59.42c0-1.47-.16-2.88-.46-4.24-.31-1.35-.72-2.55-1.22-3.6-.5-1.04-1.08-1.9-1.74-2.55-.66-.66-1.33-.99-2.03-.99v-1.16c2.17-.15,4.33-.37,6.5-.64,2.17-.27,4.29-.6,6.38-.99,2.09-.39,4.06-.83,5.92-1.33,1.86-.5,3.52-1.1,4.99-1.8h1.39v37.49c2.24-2.71,5.2-5.03,8.88-6.96,3.67-1.93,7.72-2.9,12.13-2.9,6.34,0,11.2,1.9,14.57,5.69,3.37,3.79,5.05,9.29,5.05,16.48v26.46c0,1.39.15,2.79.46,4.18.31,1.39.71,2.65,1.22,3.77.5,1.12,1.08,2.01,1.74,2.67.66.66,1.33.99,2.03.99v1.16h-30.64v-1.16c.7,0,1.37-.33,2.03-.99.66-.66,1.24-1.51,1.74-2.55.5-1.04.91-2.24,1.22-3.6.31-1.35.46-2.69.46-4v-30.06Z"/>
      <path d="m494.11,316.54c.39,7.43,2.22,13.12,5.51,17.06,3.29,3.95,7.56,5.92,12.82,5.92,1.08,0,2.51-.1,4.29-.29,1.78-.19,3.6-.71,5.46-1.57,1.86-.85,3.6-2.11,5.22-3.77,1.62-1.66,2.75-4,3.37-7.02h1.16c-.31,3.95-1.22,7.45-2.73,10.5-1.51,3.06-3.46,5.63-5.86,7.72-2.4,2.09-5.19,3.68-8.36,4.76-3.17,1.08-6.62,1.62-10.33,1.62-4.49,0-8.61-.77-12.36-2.32-3.75-1.55-6.98-3.71-9.69-6.5-2.71-2.79-4.82-6.11-6.33-9.98-1.51-3.87-2.26-8.12-2.26-12.77s.71-8.86,2.15-12.65c1.43-3.79,3.44-7.04,6.04-9.75,2.59-2.71,5.69-4.82,9.29-6.33,3.6-1.51,7.56-2.26,11.9-2.26,3.95,0,7.64.64,11.08,1.92,3.44,1.28,6.44,3.06,9,5.34,2.55,2.28,4.56,4.95,6.04,8.01,1.47,3.06,2.21,6.37,2.21,9.92v2.44h-37.6Zm18.45-2.79c-.23-6.81-1.12-12.17-2.67-16.07-1.55-3.91-3.56-5.86-6.04-5.86-1.47,0-2.79.58-3.95,1.74-1.16,1.16-2.17,2.75-3.02,4.76-.85,2.01-1.51,4.35-1.97,7.02-.46,2.67-.77,5.47-.93,8.41h18.57Z"/>
    </g>
  </g>
  <g id="the">
    <g>
      <path d="m444.89,403.36c0-2.9-.31-6.21-.93-9.94-.62-3.73-1.76-7.25-3.42-10.56-1.66-3.31-3.83-6.06-6.52-8.23-2.69-2.17-6.21-3.26-10.56-3.26-4.77,0-8.75,1.45-11.96,4.35-3.21,2.9-4.81,6.01-4.81,9.32,0,3.52,1.19,6.73,3.57,9.63,2.38,2.9,5.07,5.8,8.08,8.7,3,2.9,5.69,6.16,8.08,9.78,2.38,3.62,3.57,8.03,3.57,13.2,0,7.25-2.44,13.2-7.3,17.86-4.87,4.66-11.13,6.99-18.79,6.99-4.97,0-9.47-.98-13.51-2.95-4.04-1.97-7.51-4.55-10.41-7.77-2.9-3.21-5.12-6.99-6.68-11.34s-2.33-8.9-2.33-13.67c0-7.25,1.4-14.08,4.19-20.5,2.8-6.42,6.78-12.06,11.96-16.93,5.17-4.86,11.44-8.75,18.79-11.65,7.35-2.9,15.48-4.35,24.38-4.35h84.8v3.11c-3.73,0-7.04,2.38-9.94,7.14-2.9,4.77-4.35,11.8-4.35,21.12v184.82h43.18c9.32,0,16.93-1.24,22.83-3.73s10.72-5.9,14.44-10.25c3.73-4.35,6.57-9.47,8.54-15.38,1.97-5.9,3.67-12.37,5.12-19.41h3.11l-1.55,58.09h-166.18v-3.11c3.93,0,7.35-2.38,10.25-7.14,2.9-4.76,4.35-11.8,4.35-21.12v-152.82Z"/>
      <path d="m598.02,474.8c0-18.64,2.69-35.15,8.08-49.54,5.38-14.39,12.68-26.5,21.9-36.34,9.21-9.83,20.08-17.34,32.61-22.52,12.53-5.17,25.94-7.77,40.23-7.77s27.65,2.59,40.07,7.77c12.42,5.18,23.24,12.69,32.46,22.52,9.21,9.84,16.51,21.95,21.9,36.34,5.38,14.39,8.08,30.91,8.08,49.54s-2.69,35.15-8.08,49.54c-5.39,14.4-12.69,26.51-21.9,36.34-9.22,9.84-20.04,17.29-32.46,22.36-12.42,5.07-25.78,7.61-40.07,7.61s-27.7-2.54-40.23-7.61c-12.53-5.07-23.4-12.53-32.61-22.36-9.22-9.83-16.52-21.95-21.9-36.34-5.39-14.39-8.08-30.91-8.08-49.54Zm56.53,0c0,18.64,1.24,34.63,3.73,47.99s5.79,24.33,9.94,32.92c4.14,8.6,9.01,14.96,14.6,19.1,5.59,4.14,11.59,6.21,18.02,6.21s12.11-2.07,17.71-6.21c5.59-4.14,10.45-10.51,14.6-19.1,4.14-8.59,7.45-19.57,9.94-32.92s3.73-29.35,3.73-47.99-1.24-34.63-3.73-47.99-5.8-24.33-9.94-32.93c-4.15-8.59-9.01-14.96-14.6-19.1-5.59-4.14-11.49-6.21-17.71-6.21s-12.42,2.07-18.02,6.21c-5.59,4.14-10.46,10.51-14.6,19.1-4.15,8.6-7.46,19.57-9.94,32.93s-3.73,29.35-3.73,47.99Z"/>
      <path d="m921.38,358.63c12.42,0,23.71,1.45,33.86,4.35,10.14,2.9,18.79,6.83,25.94,11.8s12.63,10.72,16.46,17.24c3.83,6.52,5.64,13.41,5.44,20.66-.21,8.49-2.79,15.79-7.77,21.9-4.97,6.11-11.8,9.16-20.5,9.16-9.94,0-17.08-2.64-21.43-7.92-4.35-5.28-6.42-12.16-6.21-20.66,0-4.55.1-9.58.31-15.06.2-5.48-.42-10.61-1.86-15.38-1.45-4.76-4.09-8.75-7.92-11.96-3.83-3.21-9.68-4.81-17.55-4.81-7.04,0-13.82,1.82-20.35,5.44-6.52,3.62-12.27,9.16-17.24,16.62-4.97,7.46-8.96,16.93-11.96,28.42-3,11.49-4.5,25.21-4.5,41.16,0,14.29,1.6,27.13,4.81,38.52,3.21,11.39,7.81,21.07,13.82,29.04,6,7.97,13.25,14.13,21.74,18.48,8.49,4.35,18.02,6.52,28.58,6.52,17.81,0,32.41-5.13,43.8-15.38,11.39-10.25,18.02-24.17,19.88-41.78h3.11c1.03,14.08-.42,27.02-4.35,38.83-3.94,11.8-9.89,21.9-17.86,30.29-7.97,8.39-17.66,14.91-29.04,19.57-11.39,4.66-24.23,6.99-38.52,6.99-15.53,0-29.62-2.75-42.24-8.23-12.63-5.48-23.4-13.3-32.3-23.45-8.91-10.14-15.79-22.31-20.66-36.5-4.87-14.18-7.3-30.08-7.3-47.68s2.84-34.84,8.54-49.23c5.69-14.39,13.56-26.56,23.61-36.5,10.04-9.94,21.9-17.5,35.57-22.67,13.67-5.17,28.37-7.77,44.11-7.77Z"/>
      <path d="m1113.03,362.05l69.89,192.27c3.52,9.74,7.61,17.19,12.27,22.36,4.66,5.18,8.64,7.77,11.96,7.77v3.11h-95.05v-3.11c6.42,0,10.72-2.59,12.89-7.77,2.17-5.17,1.4-13.05-2.33-23.61l-6.52-18.02h-89.46l-7.77,21.43c-3.73,10.15-4.25,17.35-1.55,21.59,2.69,4.25,7.25,6.37,13.67,6.37v3.11h-52.5v-3.11c6,0,11.75-2.64,17.24-7.92,5.48-5.28,9.78-12.27,12.89-20.97l70.51-193.51h33.86Zm0,163.7l-41.31-114-41.93,114h83.25Z"/>
      <path d="m1373.64,420.13h-3.11c-1.45-7.04-3.16-13.51-5.12-19.41-1.97-5.9-4.81-11.03-8.54-15.38s-8.54-7.76-14.44-10.25c-5.9-2.49-13.51-3.73-22.83-3.73h-24.54v184.82c0,9.32,1.45,16.36,4.35,21.12,2.9,4.77,6.31,7.14,10.25,7.14v3.11h-84.8v-3.11c3.73,0,7.04-2.38,9.94-7.14,2.9-4.76,4.35-11.8,4.35-21.12v-184.82h-24.54c-9.32,0-16.93,1.24-22.83,3.73-5.9,2.49-10.72,5.9-14.44,10.25-3.73,4.35-6.58,9.47-8.54,15.38-1.97,5.9-3.68,12.38-5.12,19.41h-3.11l1.55-58.09h209.98l1.55,58.09Z"/>
      <path d="m1546.03,362.05l1.55,57.77h-2.8c-1.45-7.04-3.16-13.51-5.12-19.41-1.97-5.9-4.81-11.03-8.54-15.38s-8.54-7.71-14.44-10.09c-5.9-2.38-13.51-3.57-22.83-3.57h-43.49v99.09h29.82c15.11,0,26.25-3.21,33.39-9.63,7.14-6.42,10.72-14.18,10.72-23.3h3.11v74.24h-3.11c0-9.11-3.57-16.82-10.72-23.14-7.14-6.31-18.28-9.47-33.39-9.47h-29.82v99.09h43.49c9.32,0,16.93-1.24,22.83-3.73,5.9-2.49,10.72-5.9,14.44-10.25,3.73-4.35,6.57-9.47,8.54-15.38,1.97-5.9,3.67-12.37,5.12-19.41h2.8l-1.55,58.09h-166.18v-3.11c3.93,0,7.35-2.38,10.25-7.14,2.9-4.76,4.35-11.8,4.35-21.12v-162.76c0-9.32-1.45-16.36-4.35-21.12-2.9-4.76-6.32-7.14-10.25-7.14v-3.11h166.18Z"/>
    </g>
  </g>
</svg>